<?xml version="1.0" encoding="UTF-8"?><svg id="Calque_1" xmlns="http://www.w3.org/2000/svg" viewBox="0 0 61.22 56.98"><defs><style>.cls-1{fill:#2ea2dc;}.cls-1,.cls-2,.cls-3{fill-rule:evenodd;stroke-width:0px;}.cls-2{fill:#1e3c90;}.cls-3{fill:#843c8f;}</style></defs><path class="cls-1" d="M20.36,12.02c8.46,0,16.02,4.69,18.82,11.63,6.27,15.55-5.81,26.91-17.63,33.32v-7.13c-.39.02-.79.03-1.19.03C9.12,49.88,0,41.4,0,30.95S9.12,12.02,20.36,12.02Z"/><path class="cls-3" d="M40.85,44.96c-8.46,0-16.02-4.69-18.82-11.63C15.76,17.77,27.85,6.42,39.66,0v7.13c.39-.02.79-.03,1.19-.03,11.25,0,20.36,8.48,20.36,18.93s-9.12,18.93-20.36,18.93Z"/><path class="cls-2" d="M24.63,12.42c6.66,1.28,12.24,5.48,14.56,11.23,3.29,8.16,1.53,15.16-2.59,20.9-6.66-1.28-12.24-5.48-14.56-11.23-3.29-8.16-1.53-15.16,2.59-20.9Z"/></svg>